Coordinates
version=1
nRows=14
nColumns=40
inDegrees=yes

Units are S.I. units (second, meters, Newtons, ...)
If the header above contains a line with 'inDegrees', this indicates whether rotational values are in degrees (yes) or radians (no).

endheader
time	pelvis_tilt	pelvis_list	pelvis_rotation	pelvis_tx	pelvis_ty	pelvis_tz	hip_flexion_r	hip_adduction_r	hip_rotation_r	knee_angle_r	knee_angle_r_beta	ankle_angle_r	subtalar_angle_r	mtp_angle_r	hip_flexion_l	hip_adduction_l	hip_rotation_l	knee_angle_l	knee_angle_l_beta	ankle_angle_l	subtalar_angle_l	mtp_angle_l	lumbar_extension	lumbar_bending	lumbar_rotation	arm_flex_r	arm_add_r	arm_rot_r	elbow_flex_r	pro_sup_r	wrist_flex_r	wrist_dev_r	arm_flex_l	arm_add_l	arm_rot_l	elbow_flex_l	pro_sup_l	wrist_flex_l	wrist_dev_l
     10.85000000	    -11.73077642	      0.07929769	   -175.66223205	      0.17037586	      0.81039791	     -0.93303532	    -15.52581616	    -29.39039827	    -37.45480485	      3.37450156	      0.05889616	    -11.36794816	      0.00000000	      0.00000000	    -10.95290499	    -33.06655682	    -33.03276067	      5.55017703	      0.09686886	    -11.25549837	      0.00000000	      0.00000000	    -16.14786547	     -3.47473229	      2.40475671	     11.21751529	    -15.13254312	     52.07173778	     17.96778800	     84.73266743	      0.00000000	      0.00000000	     13.42983235	    -11.70243646	     27.47087477	     15.51086691	     82.21388967	      0.00000000	      0.00000000
     10.85500000	    -11.65764625	      0.22576217	   -175.48123752	      0.17042286	      0.81027757	     -0.93279985	    -15.53732176	    -29.17703243	    -37.63336270	      3.32492354	      0.05803086	    -11.42948619	      0.00000000	      0.00000000	    -10.66720059	    -33.30668783	    -32.78090614	      5.72515822	      0.09992286	    -11.15618324	      0.00000000	      0.00000000	    -16.07376978	     -3.24915810	      2.15696252	     11.50329742	    -15.44032353	     54.03466696	     18.23039793	     84.44395345	      0.00000000	      0.00000000	     13.40204421	    -11.35292018	     25.45715005	     15.17360628	     83.50932986	      0.00000000	      0.00000000
     10.86000000	    -11.73787874	      0.05171029	   -175.69043284	      0.17040402	      0.81044538	     -0.93299109	    -15.51820173	    -29.42888035	    -37.46315890	      3.37156550	      0.05884492	    -11.41986976	      0.00000000	      0.00000000	    -10.96401365	    -33.03677279	    -33.06223673	      5.59032961	      0.09756966	    -11.25192305	      0.00000000	      0.00000000	    -16.16254288	     -3.47645858	      2.27354111	     11.35307096	    -15.19734926	     52.57909198	     18.04807066	     84.67431363	      0.00000000	      0.00000000	     13.35203596	    -11.29811420	     25.10539389	     15.21565966	     82.44670139	      0.00000000	      0.00000000
     10.86500000	    -11.73815739	      0.01663214	   -175.70625637	      0.17040407	      0.81045233	     -0.93292326	    -15.50836774	    -29.48067357	    -37.47691766	      3.38677084	      0.05911030	    -11.41645136	      0.00000000	      0.00000000	    -10.97255930	    -32.99255861	    -33.08024403	      5.59943774	      0.09772862	    -11.24827230	      0.00000000	      0.00000000	    -16.15932296	     -3.51040728	      2.31022106	     11.38587195	    -15.31897065	     52.99047498	     18.16392579	     84.84968882	      0.00000000	      0.00000000	     13.37504732	    -11.32195444	     25.39400792	     15.23281123	     82.29216988	      0.00000000	      0.00000000
     10.87000000	    -11.76123411	     -0.07574170	   -175.78746363	      0.17039264	      0.81050828	     -0.93296133	    -15.50370346	    -29.60039202	    -37.43439040	      3.38596539	      0.05909624	    -11.42900188	      0.00000000	      0.00000000	    -11.07882580	    -32.85333100	    -33.16379678	      5.53689430	      0.09663704	    -11.27562794	      0.00000000	      0.00000000	    -16.18389419	     -3.62068526	      2.30126768	     11.36694686	    -15.20763307	     52.56968450	     18.06976424	     84.77166533	      0.00000000	      0.00000000	     13.33372331	    -11.26227921	     24.78350466	     15.21206765	     82.48815580	      0.00000000	      0.00000000
     10.87500000	    -11.74329973	     -0.07834957	   -175.76024889	      0.17041675	      0.81048378	     -0.93288506	    -15.50579557	    -29.59765356	    -37.46344341	      3.37294574	      0.05886901	    -11.45419078	      0.00000000	      0.00000000	    -11.03109786	    -32.85775139	    -33.09430722	      5.55330567	      0.09692347	    -11.25814893	      0.00000000	      0.00000000	    -16.16860698	     -3.60733802	      2.25179065	     11.52370736	    -15.34928260	     53.56663461	     18.14622434	     84.85572631	      0.00000000	      0.00000000	     13.32107178	    -11.22738792	     24.55025404	     15.19354675	     82.55436995	      0.00000000	      0.00000000
     10.88000000	    -11.75835526	     -0.08574736	   -175.79459581	      0.17038674	      0.81052861	     -0.93291307	    -15.51201501	    -29.59999780	    -37.46458177	      3.34783575	      0.05843076	    -11.45032207	      0.00000000	      0.00000000	    -11.10074205	    -32.82504312	    -33.13374788	      5.50298227	      0.09604516	    -11.25871978	      0.00000000	      0.00000000	    -16.18847086	     -3.60665418	      2.16175253	     11.48908474	    -15.25660511	     53.10965317	     18.14812506	     84.45728081	      0.00000000	      0.00000000	     13.28905452	    -10.89101745	     22.41354843	     14.90907881	     83.25543176	      0.00000000	      0.00000000
     10.88500000	    -11.76682409	     -0.12110896	   -175.81416645	      0.17044327	      0.81051882	     -0.93287135	    -15.50756556	    -29.65644489	    -37.44118730	      3.35938333	      0.05863230	    -11.44850477	      0.00000000	      0.00000000	    -11.09268628	    -32.79260936	    -33.13662364	      5.54624996	      0.09680032	    -11.23387520	      0.00000000	      0.00000000	    -16.18744919	     -3.67345033	      2.31974333	     11.43976564	    -15.39092046	     53.25410968	     18.25652677	     84.72323786	      0.00000000	      0.00000000	     13.35944976	    -11.32400840	     25.11620777	     15.25132978	     82.89712469	      0.00000000	      0.00000000
     10.89000000	    -11.80556518	     -0.09092169	   -175.80485956	      0.17040263	      0.81054560	     -0.93280765	    -15.57573968	    -29.60053734	    -37.46289624	      3.30634771	      0.05770665	    -11.50516850	      0.00000000	      0.00000000	    -11.13823130	    -32.83286772	    -33.13092433	      5.55829273	      0.09701051	    -11.22000295	      0.00000000	      0.00000000	    -16.19603991	     -3.65154350	      2.47924268	     11.04024473	    -15.12948380	     50.81881739	     18.12752175	     85.09203274	      0.00000000	      0.00000000	     13.46500696	    -11.70144687	     27.65895112	     15.50987580	     82.12873793	      0.00000000	      0.00000000
     10.89500000	    -11.75979211	     -0.01870946	   -175.71002230	      0.17041204	      0.81045380	     -0.93269337	    -15.57067703	    -29.49102914	    -37.56819146	      3.28165372	      0.05727566	    -11.44803290	      0.00000000	      0.00000000	    -10.99714636	    -32.94343352	    -32.97629077	      5.61872249	      0.09806521	    -11.13131163	      0.00000000	      0.00000000	    -16.14909971	     -3.53951606	      2.28801589	     11.58393408	    -15.52317131	     54.65866150	     18.28230601	     83.43384731	      0.00000000	      0.00000000	     13.32755824	    -11.72353682	     27.23015295	     15.62973582	     82.15987207	      0.00000000	      0.00000000
     10.90000000	    -11.78947522	     -0.16657928	   -175.84181025	      0.17034911	      0.81053587	     -0.93280914	    -15.55421967	    -29.69799156	    -37.44860538	      3.31869465	      0.05792215	    -11.45956477	      0.00000000	      0.00000000	    -11.14291748	    -32.73805775	    -33.15750334	      5.56214934	      0.09707782	    -11.18902325	      0.00000000	      0.00000000	    -16.19314191	     -3.71748196	      2.28678608	     11.41967648	    -15.31275308	     52.95038023	     18.21454189	     84.75415119	      0.00000000	      0.00000000	     13.32675043	    -11.33249495	     24.95349799	     15.26310832	     83.07846054	      0.00000000	      0.00000000
     10.90500000	    -11.80165307	     -0.20793026	   -175.89937412	      0.17033766	      0.81054959	     -0.93284879	    -15.53673417	    -29.76766537	    -37.42165897	      3.33814077	      0.05826155	    -11.48366116	      0.00000000	      0.00000000	    -11.21625245	    -32.66798568	    -33.20081662	      5.51101308	      0.09618532	    -11.26180635	      0.00000000	      0.00000000	    -16.19383572	     -3.79678939	      2.41776235	     11.23593794	    -15.20133198	     51.94846129	     18.14291890	     84.77820500	      0.00000000	      0.00000000	     13.36446187	    -11.61440174	     26.72721023	     15.48831729	     82.16684087	      0.00000000	      0.00000000
     10.91000000	    -11.83050070	     -0.19923898	   -175.92565815	      0.17031658	      0.81058680	     -0.93290410	    -15.53874618	    -29.76324327	    -37.39440459	      3.35789477	      0.05860632	    -11.44344671	      0.00000000	      0.00000000	    -11.27903281	    -32.66893737	    -33.22171112	      5.48799266	      0.09578354	    -11.25340462	      0.00000000	      0.00000000	    -16.22703863	     -3.78364375	      2.40381424	     11.38890018	    -15.33929075	     52.99546330	     18.23951811	     84.59126346	      0.00000000	      0.00000000	     13.35068604	    -11.52570705	     26.13016719	     15.40414257	     82.43036993	      0.00000000	      0.00000000
     10.91500000	    -11.82743687	     -0.10780239	   -175.87665672	      0.17027748	      0.81056186	     -0.93283766	    -15.56607059	    -29.63694566	    -37.41286460	      3.31317357	      0.05782579	    -11.48752732	      0.00000000	      0.00000000	    -11.21828293	    -32.80319750	    -33.19694777	      5.56892861	      0.09719614	    -11.19491696	      0.00000000	      0.00000000	    -16.22155922	     -3.66457572	      2.25729551	     11.43768913	    -15.24245222	     52.84596602	     18.11539069	     84.74713245	      0.00000000	      0.00000000	     13.28559399	    -11.32525730	     24.79272378	     15.25633316	     82.68986760	      0.00000000	      0.00000000
